# File created by Blade
# Date/Time:  Thu Sep 25 19:36:54 2014
# Frame Rate: 120.000 fps
#------------------------------------------------------
:FULLY-SPECIFIED
:DEGREES
422
root 0.731846 34.118978 0.182597 72.532827 -8.584174 -27.552083
Spine -28.517771 -1.451599 18.094618
Head -36.938576 31.361098 10.623580
LeftShoulder -5.538301 9.354555 32.083989
LeftArm 41.710215 -30.011417 -24.220798
LeftForeArm 8.302647 -0.000000 18.572188
LeftHand -23.244680 -0.000000 -2.330043
LeftHandThumb1 -26.253704 0.000000 33.147579
RightShoulder -23.430612 -0.626480 -27.115981
RightArm -30.306034 -24.149138 61.673644
RightForeArm -31.741608 0.000000 12.736672
RightHand -3.781593 0.000000 24.976937
RightHandThumb1 -24.326973 -0.000000 -32.862282
LeftUpLeg -66.781611 19.565426 7.488438
LeftLeg 1.827261 -0.000000 -0.000000
LeftFoot -10.091549 17.935790 -7.869774
LeftToeBase 7.715332 -0.000000 -0.000000
RightUpLeg 10.940145 22.359905 -26.441901
RightLeg 112.081252 -0.000000 -0.000000
RightFoot 32.888340 -10.877009 15.123206
RightToeBase 1.985682 -0.000000 -0.000000
423
root 0.744677 34.124870 0.158969 72.986793 -8.583505 -27.719932
Spine -28.651301 -1.400734 18.139483
Head -37.203070 31.531011 10.682676
LeftShoulder -5.593463 9.219345 32.300581
LeftArm 41.645150 -30.268078 -23.989692
LeftForeArm 8.418234 -0.000000 18.462644
LeftHand -23.366709 -0.000000 -2.031108
LeftHandThumb1 -26.253704 0.000000 33.147579
RightShoulder -23.484025 -0.778266 -27.104705
RightArm -30.031852 -24.306956 61.440833
RightForeArm -31.887913 -0.000000 12.741571
RightHand -3.719940 -0.000000 24.917370
RightHandThumb1 -24.326973 -0.000000 -32.862282
LeftUpLeg -67.178203 19.636112 7.722377
LeftLeg 1.916033 -0.000000 -0.000000
LeftFoot -10.171756 18.173263 -7.972216
LeftToeBase 7.670744 -0.000000 -0.000000
RightUpLeg 10.944159 22.470552 -26.570121
RightLeg 111.837208 -0.000000 -0.000000
RightFoot 32.877846 -10.985594 14.960014
RightToeBase 2.137539 -0.000000 -0.000000
424
root 0.756256 34.130495 0.136851 73.408879 -8.574510 -27.850021
Spine -28.782246 -1.396237 18.164888
Head -37.478272 31.642206 10.750897
LeftShoulder -5.691422 9.209207 32.557217
LeftArm 41.716732 -30.643400 -23.942333
LeftForeArm 8.529587 -0.000000 18.458247
LeftHand -23.363431 -0.000000 -2.191424
LeftHandThumb1 -26.253704 0.000000 33.147579
RightShoulder -23.450075 -0.725032 -27.134024
RightArm -30.053575 -24.576672 61.333147
RightForeArm -31.865911 -0.000000 12.748861
RightHand -3.704313 -0.000000 24.943619
RightHandThumb1 -24.326973 -0.000000 -32.862282
LeftUpLeg -67.599725 19.746010 7.764376
LeftLeg 1.958718 -0.000000 -0.000000
LeftFoot -10.162058 18.256845 -8.079991
LeftToeBase 7.562843 -0.000000 -0.000000
RightUpLeg 11.007874 22.555514 -26.673258
RightLeg 111.611869 -0.000000 -0.000000
RightFoot 32.858227 -11.088334 14.798182
RightToeBase 1.866003 -0.000000 -0.000000
425
root 0.765598 34.137929 0.115120 73.805540 -8.557915 -27.992251
Spine -28.857362 -1.383176 18.191726
Head -37.761500 31.778565 10.826036
LeftShoulder -5.808430 9.147239 32.757758
LeftArm 41.789453 -30.909987 -23.737236
LeftForeArm 8.470890 -0.000000 18.338806
LeftHand -23.489975 -0.000000 -2.038488
LeftHandThumb1 -26.253704 0.000000 33.147579
RightShoulder -23.496827 -0.833044 -27.128629
RightArm -29.787013 -24.704120 61.138848
RightForeArm -32.036289 -0.000000 12.671993
RightHand -3.639712 -0.000000 24.951109
RightHandThumb1 -24.326973 -0.000000 -32.862282
LeftUpLeg -68.018854 19.909491 7.766231
LeftLeg 2.016541 -0.000000 -0.000000
LeftFoot -10.132655 18.291187 -8.044010
LeftToeBase 7.701324 -0.000000 -0.000000
RightUpLeg 11.084622 22.660909 -26.748467
RightLeg 111.383739 -0.000000 -0.000000
RightFoot 32.805595 -11.268109 14.847017
RightToeBase 2.403414 -0.000000 -0.000000
426
root 0.778542 34.145619 0.093103 74.165319 -8.538174 -28.090506
Spine -28.901501 -1.408647 18.195182
Head -38.040578 31.898681 10.923286
LeftShoulder -5.876141 9.046889 33.043243
LeftArm 41.794010 -31.222886 -23.681302
LeftForeArm 8.550252 0.000000 18.338549
LeftHand -23.654786 -0.000000 -2.120270
LeftHandThumb1 -26.253704 0.000000 33.147579
RightShoulder -23.502971 -0.798906 -27.145020
RightArm -29.715104 -24.841656 60.985517
RightForeArm -32.097026 -0.000000 12.616871
RightHand -3.653710 -0.000000 25.016139
RightHandThumb1 -24.326973 -0.000000 -32.862282
LeftUpLeg -68.445496 20.061900 7.688693
LeftLeg 2.089983 -0.000000 -0.000000
LeftFoot -10.110401 18.151554 -8.424600
LeftToeBase 7.462146 -0.000000 -0.000000
RightUpLeg 11.210002 22.716907 -26.817209
RightLeg 111.150247 -0.000000 -0.000000
RightFoot 32.865866 -11.377929 14.652956
RightToeBase 2.422709 -0.000000 -0.000000
427
root 0.788648 34.154758 0.070973 74.531924 -8.564643 -28.230841
Spine -28.938214 -1.350243 18.118261
Head -38.356977 31.964505 10.942860
LeftShoulder -5.934316 8.870534 33.339668
LeftArm 41.777842 -31.418800 -23.551467
LeftForeArm 8.550191 -0.000000 18.303238
LeftHand -23.432590 0.000000 -2.391145
LeftHandThumb1 -26.253704 0.000000 33.147579
RightShoulder -23.495017 -0.800479 -27.120287
RightArm -29.714224 -24.846750 60.816442
RightForeArm -32.261603 -0.000000 12.617851
RightHand -3.601369 -0.000000 24.945996
RightHandThumb1 -24.326973 -0.000000 -32.862282
LeftUpLeg -68.868506 20.308696 7.503753
LeftLeg 2.120323 -0.000000 -0.000000
LeftFoot -10.053013 17.893919 -8.809874
LeftToeBase 7.317977 -0.000000 -0.000000
RightUpLeg 11.294963 22.823855 -26.954769
RightLeg 110.940896 -0.000000 -0.000000
RightFoot 32.976096 -11.393716 14.499417
RightToeBase 2.191783 -0.000000 -0.000000
